<?xml version="1.0" standalone="no"?>
<!DOCTYPE svg PUBLIC "-//W3C//DTD SVG 20010904//EN"
 "http://www.w3.org/TR/2001/REC-SVG-20010904/DTD/svg10.dtd">
<svg version="1.0" xmlns="http://www.w3.org/2000/svg"
 width="1357.000000pt" height="1068.000000pt" viewBox="0 0 1357.000000 1068.000000"
 preserveAspectRatio="xMidYMid meet">

<g transform="translate(0.000000,1068.000000) scale(0.100000,-0.100000)"
fill="#000000" stroke="none">
<path d="M7780 8810 l0 -1860 110 0 110 0 0 1745 0 1745 2670 0 2670 0 0
-5100 0 -5100 -2670 0 -2670 0 0 1880 0 1880 -110 0 -110 0 0 -1995 0 -1995
2890 0 2890 0 0 5330 0 5330 -2890 0 -2890 0 0 -1860z"/>
<path d="M1369 7937 c-100 -28 -190 -105 -233 -196 -17 -37 -21 -65 -21 -141
0 -89 2 -99 34 -158 135 -248 477 -248 612 0 32 59 34 69 34 158 0 84 -3 102
-28 151 -70 143 -250 228 -398 186z"/>
<path d="M2402 7710 c-18 -11 -41 -34 -50 -52 -107 -198 -279 -372 -522 -529
-157 -103 -145 -87 -110 -137 33 -49 70 -141 70 -175 0 -48 13 -48 90 -3 390
230 767 630 734 780 -10 46 -41 103 -66 120 -32 23 -106 20 -146 -4z"/>
<path d="M1280 7077 c-85 -30 -292 -353 -385 -602 -84 -225 -127 -559 -82
-632 4 -6 -7 -22 -23 -38 l-28 -27 -195 101 c-148 77 -197 98 -204 89 -6 -7
-36 -62 -68 -122 -68 -128 -76 -109 88 -192 70 -36 115 -53 128 -49 30 10 59
-4 59 -28 0 -18 33 -39 199 -125 120 -62 202 -99 206 -92 9 14 31 12 48 -4 12
-13 17 3 36 117 l22 131 -22 17 c-19 14 -21 22 -15 60 5 34 2 53 -13 83 -18
34 -18 42 -7 65 8 14 19 67 25 116 30 232 94 467 170 630 49 105 97 178 172
260 70 77 80 112 51 178 -31 69 -84 91 -162 64z m-356 -1297 c29 -4 55 -15 63
-26 12 -17 19 -94 8 -94 -9 0 -169 81 -183 93 -11 9 -9 14 10 29 13 10 30 15
38 12 8 -3 37 -9 64 -14z"/>
<path d="M3103 6795 c-31 -13 -34 -19 -48 -88 -5 -26 47 -70 85 -71 90 -3 115
133 30 163 -18 6 -33 11 -34 11 -1 -1 -15 -7 -33 -15z"/>
<path d="M3633 6791 c-35 -22 -49 -64 -34 -104 19 -50 90 -65 135 -29 16 12
25 22 21 22 -4 0 -3 6 1 13 11 15 11 38 1 55 -5 6 -5 12 -1 12 15 0 -51 45
-70 47 -12 2 -35 -6 -53 -16z"/>
<path d="M4986 6792 c-21 -9 -38 -22 -38 -27 1 -6 -1 -20 -4 -31 -8 -33 22
-83 54 -89 15 -4 35 -8 45 -10 11 -2 29 9 45 27 32 36 32 82 -1 114 -32 32
-57 36 -101 16z"/>
<path d="M5975 6733 l0 -53 83 0 82 0 0 -290 0 -290 -90 0 -90 0 0 -50 0 -50
238 0 237 0 0 47 0 48 -80 5 -80 5 -5 340 -5 340 -145 0 -145 0 0 -52z"/>
<path d="M8478 6393 l2 -393 63 0 62 0 -3 140 c-2 77 1 140 6 140 10 0 52 -55
52 -69 0 -5 7 -11 15 -15 8 -3 15 -10 15 -16 0 -6 6 -18 13 -25 6 -8 17 -20
22 -27 63 -80 75 -97 75 -107 0 -16 37 -22 118 -19 l73 3 -46 50 c-24 28 -45
53 -45 56 0 3 -10 18 -22 32 -13 14 -32 37 -43 51 -11 14 -30 38 -43 53 -12
16 -27 34 -33 41 -13 15 6 48 56 102 18 19 53 57 76 84 24 27 54 59 66 72 l22
24 -81 0 c-87 0 -89 -1 -163 -96 -57 -74 -120 -144 -129 -144 -4 0 -5 102 -4
228 l3 227 -65 0 -65 0 3 -392z"/>
<path d="M4290 6741 c-8 -5 -31 -12 -50 -15 -19 -4 -42 -8 -50 -10 -11 -2 -16
-20 -18 -74 l-3 -72 -74 0 -75 0 0 -55 0 -55 75 0 75 0 2 -160 c1 -198 -1
-178 23 -224 12 -24 36 -47 63 -62 23 -13 42 -22 42 -20 0 2 17 0 38 -5 23 -5
66 -4 115 3 l77 12 0 53 c0 49 -1 52 -22 46 -40 -9 -142 -10 -159 -2 -35 18
-49 83 -49 224 l0 135 115 0 115 0 0 55 0 55 -116 0 -115 0 3 90 c2 50 3 90 3
90 0 0 -7 -5 -15 -9z"/>
<path d="M2366 6732 c-3 -2 -31 -9 -66 -16 -11 -2 -16 -20 -18 -74 l-3 -72
-74 0 -75 0 0 -55 0 -55 75 0 75 0 2 -147 c1 -82 2 -157 3 -169 2 -33 27 -88
49 -106 38 -32 41 -34 49 -36 4 -1 8 -2 10 -3 38 -11 132 -15 182 -6 17 3 38
6 48 6 14 1 17 11 17 55 0 52 -1 55 -22 49 -45 -10 -133 -11 -153 0 -41 21
-44 36 -45 200 l0 157 110 0 110 0 0 55 0 55 -110 0 -110 0 0 85 0 85 -26 -2
c-14 -2 -27 -4 -28 -6z"/>
<path d="M5424 6559 l-69 -16 -3 -56 -3 -56 29 14 c16 8 51 19 78 23 43 7 65
8 137 3 31 -2 67 -47 67 -84 l0 -34 -77 -7 c-132 -12 -182 -28 -229 -73 -20
-18 -33 -33 -29 -33 3 0 0 -10 -6 -22 -26 -49 -5 -152 39 -191 26 -22 117 -49
144 -42 13 3 31 7 39 8 22 4 119 59 119 69 0 4 5 8 10 8 6 0 9 -15 8 -32 l-3
-33 58 -3 57 -3 0 208 c0 220 -8 275 -44 307 -63 56 -192 75 -322 45z m234
-351 c3 -31 -2 -43 -24 -63 -16 -14 -42 -33 -60 -41 -79 -38 -161 27 -124 96
18 33 58 47 133 46 l72 -1 3 -37z"/>
<path d="M6741 6563 c-23 -6 -48 -19 -57 -27 -8 -9 -21 -19 -28 -23 -7 -5 -26
-28 -43 -53 -61 -90 -67 -249 -12 -354 24 -46 36 -57 98 -88 79 -39 144 -41
304 -12 l37 7 0 54 c0 30 -3 52 -7 50 -16 -10 -90 -20 -153 -22 -71 -1 -124
15 -152 48 -15 17 -38 76 -38 100 0 4 86 7 191 7 l190 0 -2 73 c-3 111 -41
179 -124 225 -16 9 -37 17 -45 19 -41 9 -123 7 -159 -4z m140 -101 c31 -12 60
-69 52 -100 -5 -22 -9 -23 -117 -20 l-111 3 2 33 c1 35 33 79 67 92 25 9 74 6
107 -8z"/>
<path d="M7466 6572 c-2 -1 -14 -5 -27 -7 -12 -3 -42 -23 -66 -47 -35 -35 -43
-39 -49 -25 -3 10 -4 31 -2 47 l5 30 -59 0 -58 0 0 -285 0 -285 65 0 65 0 0
183 0 182 38 36 c46 45 72 59 111 59 29 0 64 -33 60 -56 -1 -5 -1 -98 0 -206
l1 -198 65 0 65 0 0 210 c0 268 -9 300 -94 346 -25 14 -112 25 -120 16z"/>
<path d="M8026 6573 c-1 -2 -11 -4 -22 -6 -60 -10 -96 -33 -129 -82 -28 -43
-33 -59 -32 -105 1 -37 10 -68 25 -94 23 -39 23 -40 4 -55 -47 -38 -55 -114
-17 -159 l26 -32 -35 -36 c-54 -56 -52 -129 5 -186 50 -50 321 -70 364 -27 5
5 15 9 22 9 19 0 72 50 91 85 29 55 7 175 -33 175 -7 0 -18 7 -25 15 -6 8 -15
14 -18 13 -4 0 -9 1 -12 2 -17 6 -66 10 -139 11 -110 0 -151 17 -151 58 0 18
6 32 13 32 6 1 50 3 97 5 47 1 93 4 102 5 22 3 109 74 101 83 -4 3 -1 6 5 6 7
0 11 3 11 8 -1 4 0 9 1 12 7 16 7 121 -1 126 -5 3 -9 12 -9 20 0 10 12 14 40
14 l40 0 0 50 0 51 -112 -1 c-62 0 -135 1 -161 2 -27 2 -50 2 -51 1z m105
-115 c16 -12 29 -24 30 -27 6 -31 4 -83 -3 -87 -4 -3 -6 -9 -3 -14 3 -5 -8
-18 -24 -29 -72 -51 -171 -6 -165 75 1 21 3 40 3 42 1 1 1 5 2 10 3 28 71 65
108 56 12 -3 36 -15 52 -26z m53 -472 c41 -26 34 -89 -13 -108 -30 -13 -26
-12 -73 -21 -37 -8 -122 7 -145 26 -7 5 -13 24 -13 41 0 35 13 57 45 75 30 17
167 8 199 -13z"/>
<path d="M9256 6572 c-2 -1 -16 -4 -32 -6 -25 -4 -51 -12 -88 -27 -4 -2 -9
-27 -10 -55 l-1 -52 25 13 c50 26 181 38 233 22 28 -9 57 -59 57 -98 0 -16 -8
-19 -52 -19 -29 0 -79 -6 -110 -14 -32 -7 -58 -12 -58 -10 0 14 -102 -63 -118
-89 -33 -57 -16 -165 35 -215 7 -8 39 -21 69 -29 53 -13 61 -13 126 7 38 11
71 27 75 35 3 8 11 15 19 15 8 0 14 6 15 13 0 6 5 -1 9 -17 5 -16 7 -33 4 -38
-3 -4 21 -8 53 -8 l58 0 -2 230 c-2 237 -5 252 -48 295 -14 14 -64 36 -95 42
-29 5 -160 9 -164 5z m184 -357 c0 -38 -19 -64 -75 -102 -39 -27 -111 -25
-131 2 -22 29 -17 78 8 100 33 29 45 32 126 34 l72 2 0 -36z"/>
<path d="M2810 6515 l0 -55 135 0 136 0 -1 -255 c-1 -150 -5 -257 -11 -260 -5
-4 -7 -10 -4 -15 3 -4 -9 -20 -27 -35 -28 -24 -37 -26 -92 -22 -70 6 -93 10
-102 20 -4 4 -15 7 -25 7 -14 0 -18 -11 -21 -55 -3 -58 -5 -56 62 -72 18 -4
146 -4 175 0 45 7 135 64 135 85 0 5 6 15 14 21 23 19 26 66 29 385 l2 306
-202 0 -203 0 0 -55z"/>
<path d="M3450 6515 l0 -55 80 0 80 0 0 -180 0 -180 -90 0 -90 0 0 -50 0 -50
243 0 242 0 -3 50 -4 50 -74 0 -74 0 0 235 0 235 -155 0 -155 0 0 -55z"/>
<path d="M4700 6515 l0 -55 135 0 136 0 -1 -245 c-1 -139 -6 -259 -12 -275
-16 -47 -68 -73 -131 -66 -66 6 -85 10 -93 19 -4 4 -15 7 -25 7 -9 0 -20 6
-23 13 -3 6 -4 -19 -3 -58 1 -38 7 -70 12 -70 6 -1 28 -5 50 -9 51 -11 130
-12 175 -1 44 10 113 44 123 61 4 7 14 20 23 29 8 8 13 15 9 15 -3 0 0 10 7
23 18 33 19 46 21 369 l2 298 -202 0 -203 0 0 -55z"/>
<path d="M1930 6230 c0 -119 -47 -227 -137 -317 l-63 -63 130 -241 c145 -268
136 -237 123 -442 l-6 -107 -234 0 c-215 0 -233 1 -233 18 1 9 27 179 59 377
32 198 57 361 56 363 -2 2 -24 -2 -49 -9 -70 -18 -217 -7 -303 23 -40 13 -73
22 -73 19 0 -3 -61 -411 -136 -906 -123 -811 -135 -905 -126 -952 14 -69 35
-98 89 -124 36 -18 56 -21 108 -17 69 6 157 46 181 84 8 11 47 227 87 480 l73
459 239 3 c131 1 242 -1 246 -5 4 -5 1 -114 -6 -243 -13 -230 -13 -236 7 -278
44 -94 150 -128 257 -82 69 30 128 97 135 153 3 23 19 269 36 546 l30 503
-232 387 c-127 212 -237 395 -245 406 -12 17 -13 14 -13 -35z"/>
<path d="M2824 5676 c-62 -41 -80 -159 -33 -210 11 -11 19 -24 19 -28 0 -5 4
-7 9 -4 5 4 11 2 13 -4 6 -19 102 -24 134 -6 68 37 83 60 85 131 1 46 -5 62
-32 91 -54 58 -134 70 -195 30z"/>
<path d="M8081 5676 c-35 -25 -65 -103 -56 -145 4 -17 7 -34 8 -38 0 -5 9 -17
19 -27 10 -11 18 -24 18 -28 0 -5 4 -7 9 -4 5 4 11 2 13 -4 6 -19 102 -24 134
-6 56 30 72 51 82 106 10 57 6 73 -33 118 -47 55 -138 68 -194 28z"/>
<path d="M10955 5578 l0 -88 133 0 132 0 0 -485 0 -485 -150 0 -150 0 0 -90 0
-90 400 0 400 0 0 90 0 89 -132 3 -133 3 -5 570 -5 570 -245 0 -245 0 0 -87z"/>
<path d="M167 5598 c-115 -210 -157 -302 -145 -310 33 -21 920 -480 922 -477
1 2 18 99 38 214 25 146 32 212 25 217 -6 4 -19 -6 -29 -23 -20 -33 -26 -35
-54 -15 -17 13 -18 18 -7 47 7 18 12 33 10 34 -1 1 -90 48 -198 104 l-197 101
-16 -25 c-32 -49 -90 -20 -63 32 l15 28 -130 67 c-72 38 -132 68 -134 68 -2 0
-18 -28 -37 -62z"/>
<path d="M5010 5596 c-3 -2 -17 -7 -30 -10 -14 -3 -35 -7 -47 -10 -52 -13 -69
-17 -78 -20 -5 -2 -23 -7 -40 -10 l-30 -7 3 -120 3 -119 -130 0 -131 0 0 -90
0 -90 130 0 130 0 0 -277 c0 -153 2 -288 4 -300 8 -38 37 -92 65 -121 35 -35
71 -64 71 -56 0 4 10 0 23 -8 28 -18 186 -42 224 -34 15 4 51 9 78 12 28 3 59
7 70 9 11 2 30 4 43 4 21 1 22 4 22 97 0 52 -4 93 -8 90 -14 -9 -89 -23 -168
-32 -59 -7 -141 15 -169 46 -10 11 -15 20 -11 20 3 0 1 12 -6 28 -10 20 -12
90 -10 275 l3 247 185 0 185 0 -3 88 -3 87 -182 3 -182 2 -3 151 c-2 83 -5
148 -8 145z"/>
<path d="M3930 5317 c-3 -3 -25 -8 -50 -11 -71 -9 -96 -15 -126 -31 -16 -8
-35 -15 -41 -15 -7 0 -13 -4 -13 -10 0 -5 -4 -10 -10 -10 -12 0 -47 -33 -77
-74 -33 -44 -54 -123 -44 -168 5 -21 7 -38 5 -38 -1 0 5 -17 14 -37 18 -41 70
-103 85 -103 5 0 21 -9 35 -19 15 -10 29 -19 32 -19 3 -1 12 -3 20 -6 53 -17
96 -30 105 -32 40 -7 142 -47 158 -62 10 -9 22 -15 26 -12 3 3 15 -12 26 -32
18 -34 18 -38 3 -71 -23 -49 -74 -70 -167 -69 -79 0 -146 9 -221 27 -14 3 -29
7 -35 8 -5 2 -16 6 -22 10 -7 5 -13 6 -13 2 0 -3 -13 1 -30 10 l-30 16 0 -104
0 -104 43 -7 c23 -4 53 -9 67 -11 99 -19 254 -24 335 -12 69 10 79 12 90 18 6
4 28 12 50 19 73 24 119 64 156 136 23 43 26 63 25 125 -4 130 -52 189 -199
244 -64 24 -100 37 -104 36 -9 -2 -149 53 -160 63 -47 37 -54 49 -51 79 3 34
35 77 59 80 8 2 19 6 25 10 18 11 225 0 279 -16 28 -8 57 -16 65 -18 12 -3 15
12 18 87 2 68 0 91 -10 92 -7 0 -31 4 -53 7 -102 16 -258 29 -265 22z"/>
<path d="M5965 5305 c-33 -8 -69 -16 -80 -19 -63 -14 -166 -95 -205 -161 -13
-22 -28 -43 -33 -46 -5 -3 -8 -10 -8 -15 1 -5 -4 -22 -10 -39 -14 -35 -18 -50
-24 -85 -5 -29 -6 -226 -1 -255 5 -29 17 -78 23 -95 3 -8 7 -20 9 -27 3 -17
65 -105 85 -123 41 -35 56 -46 89 -61 19 -9 37 -17 40 -17 3 0 19 -6 35 -12
17 -7 39 -13 50 -15 11 -1 41 -6 66 -10 27 -4 72 -2 105 5 75 14 184 51 184
62 0 4 7 8 15 8 8 0 15 5 15 10 0 6 6 10 14 10 8 0 24 14 37 31 13 17 32 40
42 50 9 11 14 19 10 19 -5 0 -3 4 2 8 9 6 37 57 39 72 1 3 4 10 8 16 7 10 15
43 24 99 12 80 3 273 -16 310 -1 3 -3 8 -4 13 -1 4 -7 17 -14 30 -7 12 -10 22
-7 22 4 0 -1 7 -9 16 -9 8 -16 21 -16 27 -1 30 -139 139 -192 153 -5 1 -9 2
-10 4 -2 1 -12 4 -23 6 -92 21 -176 24 -240 9z m206 -217 c19 -14 48 -50 64
-79 28 -51 29 -60 29 -174 0 -66 -3 -133 -8 -150 -13 -52 -48 -102 -90 -131
-54 -36 -150 -42 -213 -13 -43 19 -93 74 -93 100 0 8 -4 19 -10 25 -20 20 -30
148 -17 243 8 62 59 157 91 172 11 5 32 16 45 24 16 9 50 13 97 12 59 -2 77
-7 105 -29z"/>
<path d="M7155 5299 c-38 -11 -73 -26 -77 -32 -4 -7 -8 -9 -8 -4 0 4 -8 -1
-18 -11 -10 -10 -27 -25 -38 -33 -10 -8 -24 -23 -30 -34 -20 -36 -36 -30 -33
11 1 22 2 54 1 72 l-2 32 -105 0 -105 0 2 -477 3 -478 113 -3 112 -3 0 296 c0
338 -5 314 95 417 71 72 120 88 185 61 25 -10 59 -43 46 -43 -4 0 0 -13 9 -30
8 -16 15 -33 14 -37 -1 -4 -1 -25 0 -45 l1 -38 113 0 113 0 -2 53 c-4 68 -10
106 -22 137 -5 14 -11 30 -12 35 -17 67 -106 147 -180 161 -68 13 -111 12
-175 -7z"/>
<path d="M10200 5317 c-3 -3 -30 -8 -60 -11 -59 -6 -77 -10 -127 -25 -18 -5
-33 -7 -33 -4 0 3 -6 1 -12 -5 -7 -6 -15 -10 -18 -11 -3 0 -13 -3 -22 -6 -15
-6 -18 -20 -18 -91 0 -46 2 -84 5 -84 3 0 31 9 64 20 116 41 255 56 333 38 75
-18 117 -81 110 -166 l-4 -53 -116 1 c-136 0 -145 -1 -235 -29 -169 -52 -258
-191 -224 -351 17 -82 93 -173 157 -190 22 -5 59 -15 81 -21 23 -6 59 -7 83
-3 22 4 48 8 56 9 9 0 20 4 26 7 6 4 22 9 36 12 38 6 83 36 145 94 31 29 34
28 32 -10 -2 -18 -2 -48 -1 -65 l2 -33 95 0 95 0 0 343 c0 188 -4 368 -10 399
-9 57 -40 112 -85 150 -11 10 -27 23 -35 30 -8 7 -16 11 -18 10 -1 -2 -17 2
-35 8 -18 7 -39 14 -47 16 -54 13 -213 28 -220 21z m148 -557 l72 0 0 -65 c0
-57 -3 -69 -24 -88 -53 -48 -77 -67 -86 -67 -6 0 -10 -4 -10 -9 0 -13 -48 -26
-90 -25 -45 1 -90 14 -90 26 0 5 -4 7 -9 3 -6 -3 -17 10 -26 29 -17 36 -18 81
-2 104 5 6 6 12 3 12 -12 0 63 70 76 71 25 1 62 9 67 15 3 3 15 3 26 0 11 -3
53 -6 93 -6z"/>
<path d="M9163 5290 c-35 -10 -65 -15 -68 -12 -3 3 -5 0 -5 -7 0 -7 -4 -9 -10
-6 -5 3 -10 1 -10 -5 0 -6 -4 -8 -10 -5 -5 3 -10 1 -10 -4 0 -6 -4 -11 -10
-11 -20 0 -88 -56 -121 -100 -19 -25 -36 -47 -39 -50 -8 -7 -51 -108 -56 -134
-27 -120 -22 -243 14 -346 19 -53 37 -90 44 -90 4 0 8 -5 8 -10 0 -11 28 -40
88 -93 18 -15 32 -24 32 -21 0 4 9 -1 20 -11 11 -10 20 -15 20 -12 0 3 17 -1
37 -10 21 -8 49 -18 63 -21 36 -8 249 -7 290 2 40 8 40 8 95 25 l40 13 0 103
0 104 -22 -14 c-11 -8 -33 -16 -47 -19 -14 -3 -29 -7 -34 -10 -36 -22 -210
-25 -260 -4 -53 23 -125 100 -145 154 -22 62 -23 184 -1 246 16 49 83 126 124
145 63 29 148 36 230 19 42 -9 65 -14 68 -16 1 -2 5 -3 10 -5 4 -1 15 -5 25
-8 49 -19 47 -23 47 93 0 81 -3 110 -12 111 -14 1 -32 4 -88 15 -72 14 -243
10 -307 -6z"/>
<path d="M2540 5210 l0 -89 133 -3 132 -3 0 -295 0 -295 -150 -3 -150 -2 2
-88 1 -87 401 -3 401 -2 0 90 0 90 -140 0 -140 0 2 390 3 390 -247 0 -248 0 0
-90z"/>
<path d="M7800 5210 l0 -90 130 0 130 0 0 -300 0 -300 -147 0 -148 0 2 -87 1
-88 401 -3 401 -2 0 90 0 90 -140 0 -140 0 2 390 3 390 -247 0 -248 0 0 -90z"/>
<path d="M11172 4178 c-15 -15 -16 -60 0 -76 18 -18 53 -14 73 8 27 30 10 74
-30 78 -17 2 -36 -3 -43 -10z"/>
<path d="M10360 4141 c-22 -6 -25 -13 -28 -54 l-3 -47 -50 0 c-48 0 -49 -1
-49 -30 0 -29 1 -30 50 -30 l50 0 0 -105 c0 -168 24 -199 151 -193 63 3 64 3
67 33 l3 30 -51 -4 c-81 -5 -90 9 -90 136 l0 103 70 0 70 0 0 30 0 30 -70 0
-70 0 0 55 c0 58 -2 59 -50 46z"/>
<path d="M10820 4039 c-14 -6 -35 -19 -46 -30 l-22 -20 -6 25 c-5 22 -12 26
-41 26 l-35 0 0 -180 0 -180 40 0 40 0 0 115 c0 114 0 114 31 150 26 29 38 35
63 33 25 -2 33 -9 41 -35 8 -30 13 -33 48 -33 l39 0 -7 37 c-10 55 -23 73 -60
89 -39 16 -51 17 -85 3z"/>
<path d="M11595 4037 c-17 -8 -36 -21 -44 -30 -19 -24 -31 -21 -31 8 0 22 -4
25 -35 25 l-35 0 0 -250 0 -250 40 0 40 0 0 70 0 70 53 0 c108 0 173 61 183
172 11 131 -77 227 -171 185z m59 -70 c23 -17 37 -93 26 -141 -4 -21 -19 -49
-31 -62 -19 -21 -31 -24 -69 -22 l-45 3 -3 84 c-3 83 -2 85 30 118 34 35 63
41 92 20z"/>
<path d="M11070 4010 c0 -29 1 -30 50 -30 l50 0 0 -120 0 -120 -55 0 c-54 0
-55 0 -55 -30 l0 -30 150 0 150 0 0 30 c0 30 -1 30 -55 30 l-55 0 0 150 0 150
-90 0 -90 0 0 -30z"/>
</g>
</svg>
